<svg data-name="Слой 1" viewBox="0 0 32 32" xmlns="http://www.w3.org/2000/svg"><path fill="#fff" d="M16 16.982a.45.45 0 00.076-.014 6.067 6.067 0 001.558.203 6.106 6.106 0 005.907-7.694.484.484 0 00-.344-.342 6.11 6.11 0 00-4.137.371 6.428 6.428 0 00-2.816-7.853.484.484 0 00-.485 0A6.425 6.425 0 0012.928 9.5a6.118 6.118 0 00-4.126-.366.484.484 0 00-.344.343 6.11 6.11 0 007.467 7.49.46.46 0 00.075.015zm6.67-6.975a5.134 5.134 0 01-5.474 6.172l3.591-3.598a.486.486 0 00-.687-.687l-3.592 3.6a5.134 5.134 0 016.162-5.487zM16 2.643a5.5 5.5 0 01.477 8.879V5.957a.485.485 0 00-.971 0v5.563A5.5 5.5 0 0116 2.643zm-5.274 12.054a5.155 5.155 0 01-1.397-4.69 5.154 5.154 0 014.68 1.397 5.15 5.15 0 011.491 3.905l-3.408-3.415a.486.486 0 00-.688.687l3.569 3.574a5.143 5.143 0 01-4.247-1.458z"/><path fill="#fff" d="M8.83 30.412h6.282a.485.485 0 00.486-.485v-2.65a9.74 9.74 0 00-2.844-6.903L9.286 16.88a1.73 1.73 0 00-1.963-.348v-6.48a1.802 1.802 0 10-3.605 0v7.451a6.228 6.228 0 00.73 2.92l3.896 7.287v2.216a.485.485 0 00.486.486zM5.306 19.966a5.244 5.244 0 01-.617-2.463v-7.45a.832.832 0 011.663 0v7.74a1.721 1.721 0 00.49 1.536l3.394 3.352a.485.485 0 10.681-.69l-3.392-3.353a.758.758 0 01.499-1.298.762.762 0 01.572.223l3.468 3.495a8.775 8.775 0 012.562 6.22v2.163H9.315V27.59a.492.492 0 00-.057-.23zM16.89 30.412h6.28a.485.485 0 00.485-.485V27.71l3.896-7.287a6.229 6.229 0 00.73-2.92v-7.45a1.802 1.802 0 10-3.605 0v6.48a1.733 1.733 0 00-.658-.163 1.764 1.764 0 00-1.305.51l-3.466 3.494a9.737 9.737 0 00-2.844 6.904v2.649a.485.485 0 00.486.485zm.484-3.135a8.773 8.773 0 012.563-6.219l3.467-3.495a.759.759 0 111.072 1.075l-3.394 3.352a.485.485 0 10.682.69l3.395-3.352a1.724 1.724 0 00.489-1.536v-7.74a.832.832 0 011.663 0v7.45a5.244 5.244 0 01-.617 2.463l-3.952 7.395a.492.492 0 00-.057.229v1.853h-5.31z"/></svg>