<svg xmlns="http://www.w3.org/2000/svg" viewBox="0 0 64 64"><path fill="#fff" d="M60.804 2.02a49.736 49.736 0 01-19.607 0A.999.999 0 0040 3v6H7c-2.757 0-5 2.243-5 5v30c0 2.757 2.243 5 5 5h18.753l-1.556 7H19a1 1 0 00-1 1c0 2.757 2.243 5 5 5h18c2.757 0 5-2.243 5-5a1 1 0 00-1-1h-5.198l-1.556-7H57c2.757 0 5-2.243 5-5V3a1.001 1.001 0 00-1.196-.98zM42 4.205a51.58 51.58 0 0018 0v10.15a6.002 6.002 0 01-2.559 4.915L51 23.779l-6.441-4.509A6 6 0 0142 14.355V4.205zM41 60H23a3.006 3.006 0 01-2.829-2h23.658A3.006 3.006 0 0141 60zm-3.247-4H26.247l1.555-7h8.396l1.555 7zM57 47H7c-1.654 0-3-1.346-3-3v-3h56v3c0 1.654-1.346 3-3 3zM14 21v-6h14v6H14zm46-1.354V39h-8V27h-2v12H14V23h28v-2H30v-6h8v-2H13a1 1 0 00-1 1v25H4V14c0-1.654 1.346-3 3-3h33v3.355a8.005 8.005 0 003.412 6.554l7.015 4.91a1.003 1.003 0 001.146 0l7.015-4.91c.264-.185.515-.385.752-.597.098-.088.184-.187.277-.279.129-.128.263-.251.383-.387z"/><path fill="#fff" d="M50 17a.997.997 0 00.707-.293l6-6-1.414-1.414L50 14.586l-2.293-2.293-1.414 1.414 3 3A.997.997 0 0050 17zM16 17h2v2h-2zM20 17h2v2h-2zM24 17h2v2h-2zM26 26h-8a1 1 0 00-1 1v8a1 1 0 001 1h8a1 1 0 001-1v-8a1 1 0 00-1-1zm-1 8h-6v-6h6v6zM32 26h14v2H32zM32 30h14v2H32zM32 34h10v2H32zM44 34h2v2h-2z"/></svg>