<svg viewBox="0 0 64 64" xmlns="http://www.w3.org/2000/svg"><g fill="#fff"><path d="M62 53H49v-6h5a1 1 0 001-1v-4a1 1 0 00-1-1H38a1 1 0 00-1 1v4a1 1 0 001 1h5v6H26.414l-7.404-7.404c.079-7.493 2.332-14.636 6.465-20.707l9.818 9.818a.997.997 0 001.414 0L38 33.414l3.293 3.293a.997.997 0 001.414 0l6-6a.999.999 0 000-1.414L45.414 26l1.293-1.293a.999.999 0 000-1.414l-20-20a.999.999 0 00-1.414 0L24 4.586l-3.293-3.293a.999.999 0 00-1.414 0l-6 6a.999.999 0 000 1.414L16.586 12l-1.293 1.293a.999.999 0 000 1.414l4.318 4.318c-6.752 7.251-10.497 16.607-10.6 26.551l-7.716 7.716A.991.991 0 001 54v8a1 1 0 001 1h60a1 1 0 001-1v-8a1 1 0 00-1-1zM39 43h14v2H39v-2zm6 4h2v6h-2v-6zm-34.586 0h7.172l6 6H4.414l6-6zm20.293-29.707l-4-4a.999.999 0 00-1.414 0L21 17.586 19.914 16.5 28.5 7.914 41.586 21 33 29.586l-6.339-6.339a38.238 38.238 0 013.359-3.854l.687-.687a.998.998 0 000-1.413zM46.586 30L42 34.586 39.414 32 44 27.414 46.586 30zM36 32.586L34.414 31 43 22.414 44.586 24 36 32.586zM15.414 8L20 3.414 22.586 6 18 10.586 15.414 8zM26 5.414L27.086 6.5 18.5 15.086 17.414 14 26 5.414zm-3.979 13.98L26 15.414 28.586 18c-7.236 7.246-11.323 16.799-11.574 27h-5.999c.251-9.677 4.137-18.736 11.008-25.606zM61 61H3v-6h58v6z"/><path d="M45 3c8.822 0 16 7.178 16 16 0 8.116-6.069 14.947-14.116 15.891l.232 1.986C56.171 35.815 63 28.13 63 19c0-9.925-8.075-18-18-18a18.009 18.009 0 00-11.647 4.276L34.647 6.8A16.01 16.01 0 0145 3z"/><path d="M50.188 5.89c-1.148-1.148-3.15-1.148-4.298 0-.574.574-.89 1.337-.89 2.149s.316 1.575.89 2.148l1.922 1.922c.574.574 1.337.89 2.148.89.812 0 1.575-.316 2.149-.89.575-.573.891-1.336.891-2.148s-.316-1.575-.89-2.148L50.188 5.89zm.508 4.806a1.063 1.063 0 01-1.469 0l-1.922-1.923A1.034 1.034 0 0148.039 7c.277 0 .538.108.734.304l1.922 1.923a1.034 1.034 0 01.001 1.469zM51 21.961c0 .812.316 1.575.89 2.149.574.574 1.337.89 2.149.89s1.575-.316 2.148-.89l1.922-1.922c.574-.574.89-1.337.89-2.148 0-.812-.316-1.575-.89-2.149-1.147-1.148-3.15-1.148-4.297 0l-1.922 1.922a3.015 3.015 0 00-.89 2.148zm2.304-.734l1.923-1.922a1.034 1.034 0 011.773.734c0 .277-.108.538-.304.734l-1.923 1.922a1.063 1.063 0 01-1.469 0c-.196-.195-.304-.457-.304-.734s.108-.538.304-.734zM38.293 12.176l1.414 1.414.403-.402c.574-.574.89-1.337.89-2.149s-.316-1.575-.89-2.149c-1.147-1.148-3.15-1.148-4.297 0l-.403.403 1.414 1.414.403-.403a1.063 1.063 0 011.469 0c.196.196.304.458.304.735s-.108.538-.304.734l-.403.403zM47.667 21.981A4.006 4.006 0 0049 19c0-2.206-1.794-4-4-4a4.006 4.006 0 00-2.981 1.333l1.49 1.334a2.002 2.002 0 112.824 2.824l1.334 1.49z"/></g></svg>