<svg xmlns="http://www.w3.org/2000/svg" viewBox="0 0 215.922 240"><path fill="none" d="M145.96 8c-5.513 0-10 4.486-10 10s4.487 10 10 10c5.514 0 10-4.486 10-10s-4.486-10-10-10zM163.386 204c.342.593.462 1.232.481 1.872 1.693 1.314 3.79 2.128 6.094 2.128 5.513 0 10-4.486 10-10s-4.487-10-10-10c-5.514 0-10 4.486-10 10 0 1.476.341 2.867.917 4.129a3.991 3.991 0 012.508 1.871zM8 56.308v55.384l47.96 27.689 47.962-27.69V56.309L55.96 28.62 8 56.31zm50.373-12.486l31.176 18a4.001 4.001 0 011.465 5.465 4.007 4.007 0 01-5.465 1.465l-29.15-16.83-29.577 17.52a3.998 3.998 0 01-5.48-1.402 4 4 0 011.402-5.482l31.59-18.712a3.995 3.995 0 014.039-.024z"/><path fill="#fff" d="M22.744 62.558a4 4 0 104.078 6.884l29.576-17.52 29.15 16.83a4.007 4.007 0 005.466-1.465 4.001 4.001 0 00-1.465-5.465l-31.176-18a3.995 3.995 0 00-4.039.024l-31.59 18.712z"/><path fill="#fff" d="M213.922 50.535l-50.314-29.049a17.95 17.95 0 00.353-3.486c0-9.926-8.075-18-18-18-9.926 0-18 8.074-18 18s8.074 18 18 18c5.858 0 11.02-2.856 14.31-7.202l47.65 27.51v55.384l-47.96 27.689L112 111.69V54c0-1.382-.744-2.54-1.81-3.259-.093-.065-.169-.148-.268-.206l-.262-.151c-.047-.021-.083-.055-.13-.075L57.96 20.535a3.999 3.999 0 00-4 0L2 50.535A4 4 0 000 54v60a4 4 0 002 3.465l50 28.868V206a4 4 0 002 3.465l51.96 30c.62.357 1.31.535 2 .535.692 0 1.382-.178 2-.535l48.31-27.892c3.154 2.721 7.208 4.427 11.69 4.427 9.926 0 18-8.074 18-18s-8.074-18-18-18c-9.925 0-18 8.074-18 18 0 2.53.537 4.934 1.483 7.121l-45.482 26.26L60 203.69v-57.403l47.96-27.691 50 28.868c.62.357 1.31.535 2 .535.692 0 1.382-.178 2-.535l51.962-30a4 4 0 002-3.465V54a4 4 0 00-2-3.465zM145.96 28c-5.514 0-10-4.486-10-10s4.486-10 10-10c5.513 0 10 4.486 10 10s-4.487 10-10 10zm24 160c5.513 0 10 4.486 10 10s-4.487 10-10 10c-2.304 0-4.401-.814-6.094-2.128-.02-.64-.139-1.28-.48-1.872a3.991 3.991 0 00-2.509-1.871 9.902 9.902 0 01-.917-4.129c0-5.514 4.486-10 10-10zm-66.04-76.308l-47.96 27.689L8 111.69V56.309L55.96 28.62l47.962 27.69v55.383z"/></svg>