<svg data-name="Layer 1" id="Layer_1" viewBox="0 0 64 64" xmlns="http://www.w3.org/2000/svg"><defs><style>.cls-1{fill:#fff}</style></defs><path class="cls-1" d="M18 3.5A1.5 1.5 0 1019.5 5 1.5 1.5 0 0018 3.5zm0 2a.5.5 0 11.5-.5.5.5 0 01-.5.5z"/><circle class="cls-1" cx="22" cy="5" r="1"/><circle class="cls-1" cx="14" cy="5" r="1"/><path class="cls-1" d="M63 22h-.39a3 3 0 00-2.93 2.36l-1.12 5.14H22.87l-2-3.95a1 1 0 00-1.78.9l9.46 18.93A3 3 0 0030 51h6.56a3.91 3.91 0 00-.56 2 4 4 0 008 0 3.91 3.91 0 00-.56-2h5.12a3.91 3.91 0 00-.56 2 4 4 0 008 0 3.91 3.91 0 00-.56-2H56a3 3 0 001.19-5.75l4.44-20.46a1 1 0 011-.79H63a1 1 0 000-2zM38.38 45l-.81-6.5H48.5V45zm-1 0h-6.76l-3.25-6.5h9.19zm.07-7.5l-.87-7H48.5v7zm12.06 1h7.11L55.19 45H49.5zm7.32-1H49.5v-7h8.85zm-21.26-7l.87 7h-9.57l-3.5-7zM42 53a2 2 0 11-2-2 2 2 0 012 2zm12 0a2 2 0 11-2-2 2 2 0 012 2zm2-4H30a1 1 0 010-2h26a1 1 0 010 2z"/><circle class="cls-1" cx="40" cy="53" r="1"/><circle class="cls-1" cx="52" cy="53" r="1"/><path class="cls-1" d="M34 55a1 1 0 00-1 1v3a3 3 0 01-3 3H6a3 3 0 01-3-3V5.5h3a3.45 3.45 0 012.65 1.35A4.34 4.34 0 0012 8.5h12a4.34 4.34 0 003.35-1.65A3.45 3.45 0 0130 5.5h3V26a1 1 0 002 0V5a5 5 0 00-5-5H6a5 5 0 00-5 5v4a1 1 0 00-1 1v4a1 1 0 001 1v2a1 1 0 00-1 1v4a1 1 0 001 1v36a5 5 0 005 5h24a5 5 0 005-5v-3a1 1 0 00-1-1zM26.65 6.15A3.45 3.45 0 0124 7.5H12a3.45 3.45 0 01-2.65-1.35A4.34 4.34 0 006 4.5H3.05A3 3 0 016 2h24a3 3 0 013 2.5h-3a4.34 4.34 0 00-3.35 1.65z"/></svg>