<svg viewBox="0 0 64 64" xmlns="http://www.w3.org/2000/svg"><g fill="#fff"><path d="M62 3H2a1 1 0 00-1 1v46a1 1 0 001 1h37.533c.144.216.3.427.467.636V60a.999.999 0 001.316.948L47 59.054l5.684 1.894A.98.98 0 0053 61a.999.999 0 001-1v-8.364c.168-.21.324-.42.467-.636H62a1 1 0 001-1V4a1 1 0 00-1-1zM39.892 40.477c-.101.131-.197.267-.292.404-.04.059-.084.116-.124.176a9.02 9.02 0 00-.296.488l-.074.127A8.97 8.97 0 0038.51 43H13.917A6.017 6.017 0 009 38.083V15.917A6.017 6.017 0 0013.917 11h36.166A6.017 6.017 0 0055 15.917v22.166a5.956 5.956 0 00-2.33.925l-.004-.003-.031-.023q-.311-.25-.641-.469c-.072-.048-.147-.09-.22-.135-.161-.101-.323-.2-.49-.29-.09-.048-.18-.092-.272-.138a8.986 8.986 0 00-.768-.34q-.236-.091-.477-.169a8.982 8.982 0 00-.31-.095 9.107 9.107 0 00-.498-.124c-.102-.022-.203-.047-.306-.066a8.981 8.981 0 00-.556-.082c-.088-.01-.175-.025-.263-.033A9.05 9.05 0 0047 37c-.249 0-.496.011-.74.031-.082.007-.161.02-.242.029-.162.018-.324.035-.484.061-.096.016-.19.038-.284.057-.142.028-.285.055-.425.09-.099.024-.196.054-.294.082-.133.038-.266.076-.396.12-.099.033-.195.07-.291.106a9.028 9.028 0 00-.378.148c-.095.041-.188.085-.282.13a9.05 9.05 0 00-.631.325 9.013 9.013 0 00-.602.374q-.17.115-.334.237a9.165 9.165 0 00-.556.451c-.072.063-.143.126-.213.191-.106.1-.208.202-.31.307-.063.065-.126.129-.188.196-.103.113-.201.23-.299.349-.053.065-.107.127-.159.193zM52 58.612l-4.684-1.56a.992.992 0 00-.632 0L42 58.612v-5.129c.05.034.105.056.155.089a8.953 8.953 0 00.838.474c.071.036.14.077.213.11a8.982 8.982 0 001.092.423c.088.027.178.047.267.073a9.015 9.015 0 00.912.206c.11.018.219.038.33.053a8.064 8.064 0 002.387 0c.11-.015.22-.035.33-.054a8.995 8.995 0 00.91-.205c.09-.025.18-.046.269-.073a8.986 8.986 0 001.09-.422c.074-.035.144-.076.218-.113a8.957 8.957 0 00.83-.471c.052-.033.108-.056.159-.09zm1.049-9.104a6.76 6.76 0 01-.8 1.122 6.99 6.99 0 01-10.496.002A7.12 7.12 0 0140 46a7.21 7.21 0 01.219-1.75A7 7 0 0147 39q.346 0 .687.033a6.995 6.995 0 013.724 1.529q.266.215.514.458A6.972 6.972 0 0154 46a6.838 6.838 0 01-.951 3.508zM61 49h-5.517c.069-.192.125-.388.18-.585.01-.034.023-.068.032-.103a8.976 8.976 0 00.204-1.015c.012-.082.022-.163.032-.245a8.815 8.815 0 00-1.821-6.562A3.969 3.969 0 0156 40a1 1 0 001-1V15a1 1 0 00-1-1 4.004 4.004 0 01-4-4 1 1 0 00-1-1H13a1 1 0 00-1 1 4.004 4.004 0 01-4 4 1 1 0 00-1 1v24a1 1 0 001 1 4.004 4.004 0 014 4 1 1 0 001 1h25.063A9.092 9.092 0 0038 46a8.95 8.95 0 00.07 1.05c.01.083.02.166.032.25a8.964 8.964 0 00.201 1.006c.011.042.027.083.039.126.053.19.108.381.175.568H3V5h58z"/><path d="M24 22h16a1 1 0 001-1v-6a1 1 0 00-1-1H24a1 1 0 00-1 1v6a1 1 0 001 1zm1-6h14v4H25zM22 28h20a1 1 0 000-2H22a1 1 0 000 2zM46 33a1 1 0 00-1-1H19a1 1 0 000 2h26a1 1 0 001-1z"/></g></svg>