<svg width="238" height="44" fill="none" xmlns="http://www.w3.org/2000/svg"><g clip-path="url(#clip0_29_724)" fill="#015651"><path d="M0 14.183h7.636v4.738h.28s2.545-5.592 9.05-5.592c8.2 0 10.461 5.292 10.461 11.982V43.17h-7.915V27.001c0-5.017-1.415-7.246-5.091-7.246-4.244 0-6.505 2.509-6.505 8.36V43.17H0V14.183zM60.513 43.17h-7.636v-3.903h-.284s-2.545 4.737-9.046 4.737c-8.483 0-12.727-7.245-12.727-15.326 0-8.08 4.243-15.326 12.727-15.326 6.221 0 8.767 3.899 8.767 3.899h.28v-3.064h7.92V43.17zM45.808 19.203c-4.807 0-7.068 4.234-7.068 9.474s2.261 9.475 7.068 9.475c4.807 0 7.069-4.238 7.069-9.475 0-5.236-2.262-9.474-7.069-9.474zM117.01 43.17h-7.636v-4.746h-.284s-2.545 5.592-9.047 5.592c-8.2 0-10.465-5.296-10.465-11.983v-17.85h7.94v16.16c0 5.018 1.415 7.246 5.091 7.246 4.24 0 6.485-2.508 6.485-8.36V14.184h7.92l-.004 28.986zM78.205 20.314h8.265v-6.13h-8.265V4.15H70.29v10.033h-6.668v6.131h6.668v15.047c0 6.686 3.676 8.08 9.046 8.08 3.392 0 4.807-.555 4.807-.555v-5.852a9.093 9.093 0 01-2.545.276c-2.546 0-3.393-.835-3.393-3.343V20.314zM202.089 3.315c.896 0 1.772.26 2.517.75a4.476 4.476 0 011.669 2.003 4.407 4.407 0 01-.98 4.864 4.553 4.553 0 01-2.319 1.22 4.59 4.59 0 01-2.617-.254 4.51 4.51 0 01-2.032-1.645 4.415 4.415 0 01-.761-2.48 4.438 4.438 0 011.328-3.149 4.572 4.572 0 013.195-1.309zm3.96 39.85h-7.92V14.183h7.92v28.982zM171.286 43.17h-7.637v-3.903h-.283s-2.546 4.737-9.047 4.737c-8.483 0-12.727-7.245-12.727-15.326 0-8.08 4.244-15.326 12.727-15.326 6.222 0 8.763 3.899 8.763 3.899h.284v-3.064h7.92V43.17zm-14.705-23.966c-4.807 0-7.069 4.234-7.069 9.474s2.262 9.475 7.069 9.475 7.068-4.238 7.068-9.475c0-5.236-2.277-9.474-7.084-9.474h.016zM174.933 4.15v39.02h7.916V4.15h-7.916zM186.538 4.15v39.02h7.915V4.15h-7.915zM224.146 13.349c13.007 0 13.854 11.423 13.854 11.423h-7.916s-.284-5.572-5.938-5.572c-5.034 0-6.789 4.234-6.789 9.474s1.755 9.475 6.789 9.475c5.654 0 5.938-5.592 5.938-5.592H238s-.847 11.427-13.854 11.427c-9.618 0-14.705-6.854-14.705-15.326 0-8.471 5.087-15.31 14.705-15.31zM64.072 0c0 4.793-1.573 11.607-7.555 11.607a4.91 4.91 0 01-3.38-1.118c1.824-1.047 4.114-3.767 3.36-3.196-.58.444-2.898.731-4.528.891a4.293 4.293 0 01-.044-.615c0-2.852 2.391-4.282 5.22-4.957 2.525-.627 5.48-1.31 6.927-2.612zM138.836 13.393h-.053c-.36-.024-.741-.036-1.131-.036a10.033 10.033 0 00-4.247.91l-.162.08a3.512 3.512 0 00-.28.14l-.061.032a2.46 2.46 0 00-.202.116h-.029c-.13.072-.259.148-.381.228a10.795 10.795 0 00-3.648 3.934.647.647 0 00-.02.044.109.109 0 010 .036v.032h-.3v-4.73h-7.636v28.99h7.908V30.11v-.62c.081-2.584.717-4.653 1.893-6.19 1.272-1.665 3.299-2.497 6.079-2.497.666-.002 1.331.04 1.99.128.305.034.609.085.908.151v-7.509a3.446 3.446 0 00-.628-.18z"/></g><defs><clipPath id="clip0_29_724"><path fill="#fff" d="M0 0h238v44H0z"/></clipPath></defs></svg>