<svg width="36" height="36" fill="none" xmlns="http://www.w3.org/2000/svg"><path d="M32.402 12s-.364-.04-.528-.12c-.165-.08-13.872-7.08-13.872-7.08L4.13 11.832A1.235 1.235 0 113.074 9.6l14.928-7.392L32.93 9.6a1.229 1.229 0 01-.528 2.4zm-20.4 12h-7.2v7.2h7.2V24zm9.6 0h-7.2v7.2h7.2V24zm9.6 0h-7.2v7.2h7.2V24zm-4.8-9.6h-7.2v7.2h7.2v-7.2zm-9.6 0h-7.2v7.2h7.2v-7.2z" fill="url(#paint0_linear_2_1999)"/><defs><linearGradient id="paint0_linear_2_1999" x1="2.367" y1="23.563" x2="34.768" y2="17.94" gradientUnits="userSpaceOnUse"><stop stop-color="#015651"/><stop offset="1" stop-color="#015651"/></linearGradient></defs></svg>