<svg width="46" height="47" fill="none" xmlns="http://www.w3.org/2000/svg"><path d="M23.518 5C33.73 5 42 13.288 42 23.5S33.73 42 23.518 42C13.288 42 5 33.712 5 23.5S13.288 5 23.518 5zM23.5 38.3c8.177 0 14.8-6.623 14.8-14.8S31.677 8.7 23.5 8.7 8.7 15.323 8.7 23.5s6.623 14.8 14.8 14.8z" fill="url(#paint0_linear_2_1995)"/><path d="M24.75 14H22v11.148L31.625 31 33 28.715l-8.25-4.96V14z" fill="url(#paint1_linear_2_1995)"/><defs><linearGradient id="paint0_linear_2_1995" x1="42" y1="32.254" x2="3.784" y2="26.151" gradientUnits="userSpaceOnUse"><stop stop-color="#015651"/><stop offset="1" stop-color="#015651"/></linearGradient><linearGradient id="paint1_linear_2_1995" x1="22" y1="26.522" x2="33.528" y2="25.331" gradientUnits="userSpaceOnUse"><stop stop-color="#015651"/><stop offset="1" stop-color="#015651"/></linearGradient></defs></svg>