<?xml version="1.0" ?>
<svg data-name="Слой 1" id="Слой_1" viewBox="0 0 32 32" xmlns="http://www.w3.org/2000/svg">
    <path fill="#ffffff"
          d="M16,16.9823a.45.45,0,0,0,.0757-.0146,6.0667,6.0667,0,0,0,1.5581.2036,6.106,6.106,0,0,0,5.9072-7.6938.484.484,0,0,0-.3437-.3428,6.11,6.11,0,0,0-4.1372.3716,6.4277,6.4277,0,0,0-2.8159-7.8536.4842.4842,0,0,0-.4854,0A6.4253,6.4253,0,0,0,12.9277,9.5a6.1183,6.1183,0,0,0-4.1255-.3657.484.484,0,0,0-.3438.3428,6.1107,6.1107,0,0,0,7.4663,7.49A.4594.4594,0,0,0,16,16.9823Zm6.67-6.9751a5.1339,5.1339,0,0,1-5.4741,6.1719l3.5913-3.5981a.4858.4858,0,0,0-.6875-.6866l-3.5918,3.5987A5.1344,5.1344,0,0,1,22.67,10.0072ZM16,2.6425a5.4992,5.4992,0,0,1,.4766,8.8794V5.9569a.4854.4854,0,0,0-.9707,0V11.52A5.4992,5.4992,0,0,1,16,2.6425ZM10.726,14.6972a5.1555,5.1555,0,0,1-1.3965-4.69,5.1538,5.1538,0,0,1,4.68,1.3965v0A5.15,5.15,0,0,1,15.5,15.3085l-3.4082-3.4141a.4858.4858,0,0,0-.6875.6866l3.5684,3.5742A5.1426,5.1426,0,0,1,10.726,14.6972Z"/>
    <path fill="#ffffff"
          d="M8.83,30.412h6.2822a.4847.4847,0,0,0,.4854-.4853V27.2773a9.74,9.74,0,0,0-2.8438-6.9034L9.2856,16.88a1.73,1.73,0,0,0-1.9629-.3477V10.0527a1.8023,1.8023,0,1,0-3.6045,0v7.4506a6.2275,6.2275,0,0,0,.73,2.92L8.3442,27.71v2.2163A.4847.4847,0,0,0,8.83,30.412ZM5.3061,19.9657a5.2441,5.2441,0,0,1-.6172-2.4624V10.0527a.8316.8316,0,0,1,1.6631,0v7.7407a1.721,1.721,0,0,0,.49,1.5356l3.3936,3.3516a.4851.4851,0,1,0,.6816-.69L7.5248,18.6376a.7585.7585,0,0,1,.499-1.2974.7625.7625,0,0,1,.5723.2232l3.4678,3.4946a8.775,8.775,0,0,1,2.5625,6.2193v2.164H9.3149V27.5888a.4922.4922,0,0,0-.0567-.229Z"/>
    <path fill="#ffffff"
          d="M16.8891,30.412H23.17a.4847.4847,0,0,0,.4854-.4853V27.71l3.8955-7.2867a6.2287,6.2287,0,0,0,.73-2.92V10.0527a1.8023,1.8023,0,1,0-3.6045,0v6.4794a1.733,1.733,0,0,0-.6582-.1621,1.7645,1.7645,0,0,0-1.3047.51l-3.4668,3.4941a9.7367,9.7367,0,0,0-2.8438,6.9034v2.6494A.4847.4847,0,0,0,16.8891,30.412Zm.4853-3.1347a8.7733,8.7733,0,0,1,2.5625-6.2193l3.4668-3.4946a.7589.7589,0,1,1,1.0723,1.0742L21.0824,21.99a.4851.4851,0,1,0,.6817.69l3.3945-3.3516a1.7239,1.7239,0,0,0,.4893-1.5361v-7.74a.8316.8316,0,0,1,1.6631,0v7.4506a5.2441,5.2441,0,0,1-.6172,2.4624L22.7416,27.36a.4921.4921,0,0,0-.0566.229v1.8525H17.3744Z"/>
</svg>