<?xml version="1.0" ?>
<svg data-name="Layer 1" id="Layer_1" viewBox="0 0 64 64" xmlns="http://www.w3.org/2000/svg">
    <defs>
        <style>.cls-1{fill:#ffffff;}</style>
    </defs>
    <title/>
    <path class="cls-1" d="M18,3.5A1.5,1.5,0,1,0,19.5,5,1.5,1.5,0,0,0,18,3.5Zm0,2a.5.5,0,1,1,.5-.5A.5.5,0,0,1,18,5.5Z"/>
    <circle class="cls-1" cx="22" cy="5" r="1"/>
    <circle class="cls-1" cx="14" cy="5" r="1"/>
    <path class="cls-1"
          d="M63,22h-.39a3,3,0,0,0-2.93,2.36L58.56,29.5H22.87l-2-3.95a1,1,0,0,0-1.78.9l9.46,18.93A3,3,0,0,0,30,51h6.56A3.91,3.91,0,0,0,36,53a4,4,0,0,0,8,0,3.91,3.91,0,0,0-.56-2h5.12A3.91,3.91,0,0,0,48,53a4,4,0,0,0,8,0,3.91,3.91,0,0,0-.56-2H56a3,3,0,0,0,1.19-5.75l4.44-20.46a1,1,0,0,1,1-.79H63a1,1,0,0,0,0-2ZM38.38,45l-.81-6.5H48.5V45Zm-1,0H30.62l-3.25-6.5h9.19Zm.07-7.5-.87-7H48.5v7Zm12.06,1h7.11L55.19,45H49.5Zm7.32-1H49.5v-7h8.85Zm-21.26-7,.87,7H26.87l-3.5-7ZM42,53a2,2,0,1,1-2-2A2,2,0,0,1,42,53Zm12,0a2,2,0,1,1-2-2A2,2,0,0,1,54,53Zm2-4H30a1,1,0,0,1,0-2H56a1,1,0,0,1,0,2Z"/>
    <circle class="cls-1" cx="40" cy="53" r="1"/>
    <circle class="cls-1" cx="52" cy="53" r="1"/>
    <path class="cls-1"
          d="M34,55a1,1,0,0,0-1,1v3a3,3,0,0,1-3,3H6a3,3,0,0,1-3-3V5.5H6A3.45,3.45,0,0,1,8.65,6.85,4.34,4.34,0,0,0,12,8.5H24a4.34,4.34,0,0,0,3.35-1.65A3.45,3.45,0,0,1,30,5.5h3V26a1,1,0,0,0,2,0V5a5,5,0,0,0-5-5H6A5,5,0,0,0,1,5V9a1,1,0,0,0-1,1v4a1,1,0,0,0,1,1v2a1,1,0,0,0-1,1v4a1,1,0,0,0,1,1V59a5,5,0,0,0,5,5H30a5,5,0,0,0,5-5V56A1,1,0,0,0,34,55ZM26.65,6.15A3.45,3.45,0,0,1,24,7.5H12A3.45,3.45,0,0,1,9.35,6.15,4.34,4.34,0,0,0,6,4.5H3.05A3,3,0,0,1,6,2H30a3,3,0,0,1,3,2.5H30A4.34,4.34,0,0,0,26.65,6.15Z"/>
</svg>