<?xml version="1.0" ?>
<svg viewBox="0 0 64 64" xmlns="http://www.w3.org/2000/svg">
    <title/>
    <g id="Certificate">
        <path fill="#ffffff"
              d="M62,3H2A1,1,0,0,0,1,4V50a1,1,0,0,0,1,1H39.533c.1437.2159.3.4272.467.6356V60a.999.999,0,0,0,1.3164.9482L47,59.0537l5.6836,1.8945A.98.98,0,0,0,53,61a.999.999,0,0,0,1-1V51.6361c.1678-.2095.3239-.4206.4672-.6361H62a1,1,0,0,0,1-1V4A1,1,0,0,0,62,3ZM39.8925,40.4772c-.1019.1308-.1977.2666-.2923.4033-.041.0591-.0841.1162-.1237.1763-.1044.1587-.2015.3227-.2961.4885-.0243.0426-.0511.0832-.0747.1262A8.97,8.97,0,0,0,38.51,43H13.917A6.017,6.017,0,0,0,9,38.083V15.917A6.017,6.017,0,0,0,13.917,11H50.083A6.017,6.017,0,0,0,55,15.917V38.083a5.9559,5.9559,0,0,0-2.33.9248l-.004-.003-.0311-.023q-.3114-.25-.6412-.4684c-.0718-.0479-.1466-.09-.22-.1357-.1609-.1008-.3228-.1993-.4891-.2894-.09-.0487-.1815-.0925-.2727-.138-.1551-.0774-.3112-.1519-.47-.22-.0984-.0422-.1977-.0813-.2976-.12q-.2363-.0913-.4772-.1691c-.1027-.0332-.2055-.0657-.3094-.0952-.1649-.0466-.3314-.0865-.499-.1238-.1018-.0226-.2028-.0469-.3056-.066-.1839-.0342-.37-.0591-.5564-.0818-.0879-.0107-.1748-.0256-.2631-.0338C47.5577,37.0151,47.28,37,47,37c-.2489,0-.4956.0112-.74.0312-.0815.0066-.161.02-.2419.0286-.1622.0178-.3245.0351-.4843.0614-.0956.0157-.1891.0377-.2837.0564-.1424.0282-.2848.0556-.4249.09-.0992.0246-.1962.0548-.2941.0826-.133.0379-.2658.0756-.3964.1194-.0982.033-.1943.07-.2909.1065-.1268.0475-.2531.0954-.3773.1484-.0954.0407-.1888.0847-.2825.1287-.1219.0571-.2429.1154-.362.1778-.0908.0476-.18.0976-.2691.1483-.1176.0668-.2337.1355-.348.2074-.0856.0539-.17.1093-.2536.166q-.17.1151-.3339.2377c-.0793.0592-.1579.1191-.2352.1808-.1095.0874-.216.1779-.3213.27-.0717.063-.1433.1258-.213.191-.106.0991-.2082.2021-.3094.3064-.0631.0651-.127.1293-.1882.1964-.1032.1129-.2016.23-.2991.3486C39.998,40.3486,39.9437,40.4114,39.8925,40.4772ZM52,58.6123l-4.6836-1.56a.9922.9922,0,0,0-.6328,0L42,58.6123V53.4834c.05.0332.1052.056.1555.0882a8.9534,8.9534,0,0,0,.837.4747c.0719.0358.1407.0765.2136.11a8.9822,8.9822,0,0,0,1.0918.4224c.088.0277.1779.0477.2667.0728a9.0154,9.0154,0,0,0,.9121.206c.11.0189.2189.0385.33.0533a8.0642,8.0642,0,0,0,2.3869,0c.1111-.0149.22-.0345.33-.0534a8.9952,8.9952,0,0,0,.91-.2056c.09-.0252.18-.0454.269-.0733a8.986,8.986,0,0,0,1.09-.4218c.0744-.0345.1448-.0762.2181-.1127a8.9568,8.9568,0,0,0,.8311-.4714c.0511-.0327.1075-.0558.158-.09Zm1.0488-9.1045a6.7606,6.7606,0,0,1-.8,1.1221,6.99,6.99,0,0,1-10.4961.0019A7.12,7.12,0,0,1,40,46a7.2106,7.2106,0,0,1,.2188-1.75A6.9991,6.9991,0,0,1,47,39q.3462,0,.6874.0334a6.9949,6.9949,0,0,1,3.7232,1.5283q.2662.2152.5142.4578A6.9718,6.9718,0,0,1,54,46,6.8384,6.8384,0,0,1,53.0488,49.5078ZM61,49H55.4834c.0682-.1921.125-.3882.18-.5847.01-.0346.0224-.0681.0317-.1029a8.9765,8.9765,0,0,0,.2036-1.0153c.012-.0818.0221-.1634.0318-.2456a8.8146,8.8146,0,0,0-1.821-6.561A3.9689,3.9689,0,0,1,56,40a1,1,0,0,0,1-1V15a1,1,0,0,0-1-1,4.0039,4.0039,0,0,1-4-4,1,1,0,0,0-1-1H13a1,1,0,0,0-1,1,4.0039,4.0039,0,0,1-4,4,1,1,0,0,0-1,1V39a1,1,0,0,0,1,1,4.0039,4.0039,0,0,1,4,4,1,1,0,0,0,1,1H38.0625A9.0917,9.0917,0,0,0,38,46a8.95,8.95,0,0,0,.0693,1.0493c.01.0838.02.1668.0323.25a8.964,8.964,0,0,0,.2014,1.0064c.0113.0426.0268.0836.0387.126.0538.1908.1086.3814.1749.5682H3V5H61Z"/>
        <path fill="#ffffff"
              d="M24,22H40a1,1,0,0,0,1-1V15a1,1,0,0,0-1-1H24a1,1,0,0,0-1,1v6A1,1,0,0,0,24,22Zm1-6H39v4H25Z"/>
        <path fill="#ffffff" d="M22,28H42a1,1,0,0,0,0-2H22a1,1,0,0,0,0,2Z"/>
        <path fill="#ffffff" d="M46,33a1,1,0,0,0-1-1H19a1,1,0,0,0,0,2H45A1,1,0,0,0,46,33Z"/>
    </g>
</svg>