<?xml version="1.0" ?>
<svg id="Layer_3" style="enable-background:new 0 0 64 64;" version="1.1" viewBox="0 0 64 64" xml:space="preserve"
     xmlns="http://www.w3.org/2000/svg" xmlns:xlink="http://www.w3.org/1999/xlink"><g><path fill="#ffffff" d="M62,53H49v-6h5c0.552,0,1-0.447,1-1v-4c0-0.553-0.448-1-1-1H38c-0.552,0-1,0.447-1,1v4c0,0.553,0.448,1,1,1h5v6H26.414   l-7.404-7.404c0.079-7.493,2.332-14.636,6.465-20.707l9.818,9.818C35.488,34.902,35.744,35,36,35s0.512-0.098,0.707-0.293   L38,33.414l3.293,3.293C41.488,36.902,41.744,37,42,37s0.512-0.098,0.707-0.293l6-6c0.391-0.391,0.391-1.023,0-1.414L45.414,26   l1.293-1.293c0.391-0.391,0.391-1.023,0-1.414l-20-20c-0.391-0.391-1.023-0.391-1.414,0L24,4.586l-3.293-3.293   c-0.391-0.391-1.023-0.391-1.414,0l-6,6c-0.391,0.391-0.391,1.023,0,1.414L16.586,12l-1.293,1.293   c-0.391,0.391-0.391,1.023,0,1.414l4.318,4.318c-6.752,7.251-10.497,16.607-10.6,26.551l-7.716,7.716C1.112,53.473,1,53.723,1,54v8   c0,0.553,0.448,1,1,1h60c0.552,0,1-0.447,1-1v-8C63,53.447,62.552,53,62,53z M39,43h14v2h-5h-4h-5V43z M45,47h2v6h-2V47z    M10.414,47h7.172l6,6H4.414L10.414,47z M30.707,17.293l-4-4c-0.391-0.391-1.023-0.391-1.414,0L21,17.586L19.914,16.5L28.5,7.914   L41.586,21L33,29.586l-6.339-6.339c1.026-1.346,2.142-2.636,3.359-3.854l0.687-0.687C31.098,18.316,31.098,17.684,30.707,17.293z    M46.586,30L42,34.586L39.414,32L44,27.414L46.586,30z M36,32.586L34.414,31L43,22.414L44.586,24L36,32.586z M15.414,8L20,3.414   L22.586,6L18,10.586L15.414,8z M26,5.414L27.086,6.5L18.5,15.086L17.414,14L26,5.414z M22.021,19.394L26,15.414L28.586,18   c-7.236,7.246-11.323,16.799-11.574,27h-5.999C11.264,35.323,15.15,26.264,22.021,19.394z M61,61H3v-6h58V61z"/><path
        fill="#ffffff"
        d="M45,3c8.822,0,16,7.178,16,16c0,8.116-6.069,14.947-14.116,15.891l0.232,1.986C56.171,35.815,63,28.13,63,19   c0-9.925-8.075-18-18-18c-4.265,0-8.401,1.519-11.647,4.276L34.647,6.8C37.532,4.35,41.209,3,45,3z"/><path
        fill="#ffffff"
        d="M50.188,5.89c-1.148-1.148-3.15-1.148-4.298,0C45.316,6.464,45,7.227,45,8.039s0.316,1.575,0.89,2.148l1.922,1.922   c0.574,0.574,1.337,0.89,2.148,0.89c0.812,0,1.575-0.316,2.149-0.89C52.684,11.536,53,10.773,53,9.961s-0.316-1.575-0.89-2.148   L50.188,5.89z M50.696,10.696c-0.393,0.393-1.077,0.393-1.469,0c0,0,0,0,0,0l-1.922-1.923C47.108,8.577,47,8.316,47,8.039   s0.108-0.539,0.304-0.735S47.762,7,48.039,7s0.538,0.108,0.734,0.304l1.922,1.923C50.892,9.423,51,9.684,51,9.961   S50.892,10.5,50.696,10.696z"/><path
        fill="#ffffff"
        d="M51,21.961c0,0.812,0.316,1.575,0.89,2.149c0.574,0.574,1.337,0.89,2.149,0.89s1.575-0.316,2.148-0.89l1.922-1.922   c0.574-0.574,0.89-1.337,0.89-2.148c0-0.812-0.316-1.575-0.89-2.149c-1.147-1.148-3.15-1.148-4.297,0l-1.922,1.922   C51.316,20.386,51,21.149,51,21.961z M53.304,21.227l1.923-1.922C55.423,19.108,55.684,19,55.961,19s0.539,0.108,0.735,0.304   S57,19.762,57,20.039s-0.108,0.538-0.304,0.734c0,0,0,0,0,0l-1.923,1.922c-0.392,0.393-1.076,0.393-1.469,0   C53.108,22.5,53,22.238,53,21.961S53.108,21.423,53.304,21.227z"/><path
        fill="#ffffff"
        d="M38.293,12.176l1.414,1.414l0.403-0.402c0.574-0.574,0.89-1.337,0.89-2.149s-0.316-1.575-0.89-2.149   c-1.147-1.148-3.15-1.148-4.297,0L35.41,9.293l1.414,1.414l0.403-0.403c0.392-0.393,1.076-0.393,1.469,0   C38.892,10.5,39,10.762,39,11.039s-0.108,0.538-0.304,0.734L38.293,12.176z"/><path
        fill="#ffffff"
        d="M47.667,21.981C48.514,21.223,49,20.136,49,19c0-2.206-1.794-4-4-4c-1.136,0-2.223,0.486-2.981,1.333l1.49,1.334   C43.889,17.243,44.432,17,45,17c1.103,0,2,0.897,2,2c0,0.568-0.243,1.111-0.667,1.491L47.667,21.981z"/></g></svg>