<svg width="238" height="44" viewBox="0 0 238 44" fill="none" xmlns="http://www.w3.org/2000/svg">
<g clip-path="url(#clip0_29_724)">
<path d="M0 14.1834H7.63609V18.9205H7.91576C7.91576 18.9205 10.4611 13.3286 16.9664 13.3286C25.1659 13.3286 27.4275 18.6209 27.4275 25.3112V43.1692H19.5118V27.0007C19.5118 21.984 18.0972 19.7553 14.421 19.7553C10.1774 19.7553 7.91576 22.2636 7.91576 28.1151V43.1692H0V14.1834Z" fill="#015651"/>
<path d="M60.5131 43.1692H52.877V39.2668H52.5932C52.5932 39.2668 50.0479 44.0039 43.5467 44.0039C35.0635 44.0039 30.8198 36.7585 30.8198 28.6782C30.8198 20.598 35.0635 13.3525 43.5467 13.3525C49.7682 13.3525 52.3136 17.2509 52.3136 17.2509H52.5932V14.1873H60.5131V43.1692ZM45.8083 19.204C41.0013 19.204 38.7396 23.4379 38.7396 28.6782C38.7396 33.9186 41.0013 38.1525 45.8083 38.1525C50.6153 38.1525 52.877 33.9146 52.877 28.6782C52.877 23.4419 50.6153 19.204 45.8083 19.204Z" fill="#015651"/>
<path d="M117.01 43.1692H109.374V38.4241H109.09C109.09 38.4241 106.545 44.016 100.043 44.016C91.8438 44.016 89.5781 38.7197 89.5781 32.0334V14.1833H97.5182V30.3439C97.5182 35.3606 98.9328 37.5893 102.609 37.5893C106.849 37.5893 109.094 35.081 109.094 29.2295V14.1833H117.014L117.01 43.1692Z" fill="#015651"/>
<path d="M78.2052 20.3144H86.4696V14.1833H78.2052V4.1499H70.2895V14.1833H63.6221V20.3144H70.2895V35.3605C70.2895 42.0468 73.9657 43.4408 79.3361 43.4408C82.7285 43.4408 84.1431 42.8856 84.1431 42.8856V37.0341C83.3124 37.2455 82.4552 37.3383 81.5977 37.3097C79.0523 37.3097 78.2052 36.4749 78.2052 33.9665V20.3144Z" fill="#015651"/>
<path d="M202.089 3.31519C202.985 3.3144 203.861 3.57549 204.606 4.06542C205.351 4.55535 205.932 5.25211 206.275 6.06751C206.618 6.8829 206.708 7.78029 206.534 8.64611C206.359 9.51193 205.928 10.3073 205.295 10.9315C204.661 11.5557 203.854 11.9807 202.976 12.1527C202.097 12.3247 201.186 12.236 200.359 11.8978C199.531 11.5597 198.824 10.9872 198.327 10.2529C197.83 9.51858 197.565 8.65545 197.566 7.77271C197.569 6.59147 198.047 5.45952 198.894 4.62426C199.742 3.789 200.891 3.31835 202.089 3.31519ZM206.049 43.1652H198.129V14.1834H206.049V43.1652Z" fill="#015651"/>
<path d="M171.286 43.1692H163.649V39.2668H163.366C163.366 39.2668 160.82 44.0039 154.319 44.0039C145.836 44.0039 141.592 36.7585 141.592 28.6782C141.592 20.598 145.836 13.3525 154.319 13.3525C160.541 13.3525 163.082 17.2509 163.082 17.2509H163.366V14.1873H171.286V43.1692ZM156.581 19.204C151.774 19.204 149.512 23.4379 149.512 28.6782C149.512 33.9186 151.774 38.1525 156.581 38.1525C161.388 38.1525 163.649 33.9146 163.649 28.6782C163.649 23.4419 161.372 19.204 156.565 19.204H156.581Z" fill="#015651"/>
<path d="M174.933 4.1499V43.1691H182.849V4.1499H174.933Z" fill="#015651"/>
<path d="M186.538 4.1499V43.1691H194.453V4.1499H186.538Z" fill="#015651"/>
<path d="M224.146 13.3486C237.153 13.3486 238 24.772 238 24.772H230.084C230.084 24.772 229.8 19.2001 224.146 19.2001C219.112 19.2001 217.357 23.434 217.357 28.6743C217.357 33.9147 219.112 38.1486 224.146 38.1486C229.8 38.1486 230.084 32.5567 230.084 32.5567H238C238 32.5567 237.153 43.9841 224.146 43.9841C214.528 43.9841 209.441 37.13 209.441 28.6584C209.441 20.1867 214.528 13.3486 224.146 13.3486Z" fill="#015651"/>
<path d="M64.072 0C64.072 4.79303 62.4994 11.6071 56.517 11.6071C55.2872 11.6695 54.0792 11.2698 53.1367 10.4887C54.9606 9.44226 57.2506 6.72222 56.4967 7.29339C55.9171 7.73674 53.5987 8.02433 51.9694 8.1841C51.9398 7.98035 51.9249 7.7748 51.9248 7.56899C51.9248 4.71714 54.3162 3.28722 57.1452 2.6122C59.6703 1.98512 62.6251 1.30211 64.072 0Z" fill="#015651"/>
<path d="M138.836 13.3926H138.783C138.423 13.3687 138.042 13.3567 137.652 13.3567C136.299 13.3472 134.959 13.6109 133.713 14.1316C133.607 14.1715 133.506 14.2194 133.405 14.2674L133.243 14.3472C133.145 14.3912 133.056 14.4351 132.963 14.487L132.902 14.519C132.833 14.555 132.768 14.5909 132.7 14.6348H132.671C132.541 14.7067 132.412 14.7826 132.29 14.8625C130.758 15.8508 129.503 17.204 128.642 18.7968C128.635 18.8111 128.628 18.8257 128.622 18.8407C128.624 18.8526 128.624 18.8647 128.622 18.8767C128.622 18.8767 128.622 18.8966 128.622 18.9086H128.322V14.1795H120.686V43.1693H128.594V30.1083C128.594 29.8966 128.594 29.7089 128.594 29.4892C128.675 26.905 129.311 24.836 130.487 23.2982C131.759 21.634 133.786 20.8019 136.566 20.8019C137.232 20.7999 137.897 20.8426 138.556 20.9297C138.861 20.9643 139.165 21.015 139.464 21.0815V13.5724C139.261 13.4928 139.051 13.4326 138.836 13.3926Z" fill="#015651"/>
</g>
<defs>
<clipPath id="clip0_29_724">
<rect width="238" height="44" fill="white"/>
</clipPath>
</defs>
</svg>
