<svg width="36" height="36" viewBox="0 0 36 36" fill="none" xmlns="http://www.w3.org/2000/svg">
<path d="M32.4018 12C32.4018 12 32.0383 11.9597 31.8738 11.88C31.7092 11.8003 18.0018 4.80001 18.0018 4.80001L4.12979 11.832C3.83381 11.972 3.49432 11.9888 3.18601 11.8785C2.8777 11.7682 2.62582 11.54 2.48579 11.244C2.34575 10.948 2.32903 10.6085 2.43931 10.3002C2.54958 9.99192 2.77781 9.74004 3.07379 9.60001L18.0018 2.20801L32.9298 9.60001C33.2445 9.67352 33.5175 9.86802 33.6898 10.1414C33.8621 10.4148 33.9198 10.745 33.8503 11.0606C33.7809 11.3762 33.59 11.6517 33.3188 11.8276C33.0477 12.0034 32.7183 12.0653 32.4018 12ZM12.0018 24H4.80179V31.2H12.0018V24ZM21.6018 24H14.4018V31.2H21.6018V24ZM31.2018 24H24.0018V31.2H31.2018V24ZM26.4018 14.4H19.2018V21.6H26.4018V14.4ZM16.8018 14.4H9.60179V21.6H16.8018V14.4Z" fill="url(#paint0_linear_2_1999)"/>
<defs>
<linearGradient id="paint0_linear_2_1999" x1="2.36719" y1="23.563" x2="34.7684" y2="17.9396" gradientUnits="userSpaceOnUse">
<stop stop-color="#015651"/>
<stop offset="1" stop-color="#015651"/>
</linearGradient>
</defs>
</svg>
